# xmcd
#
# Track frame offsets:
#	150
#	17899
#	32160
#	55917
#	84491
#	96151
#	108682
#	119317
#	136004
#	161686
#	178635
#	190291
#	211519
#	230918
#	248990
#	260646
#	277549
#	296397
#
# Disc length: 4338 seconds
#
# Revision: 2
# Processed by: cddbd v1.5.2PL0 Copyright (c) Steve Scherf et al.
# Submitted via: audiograbber 1.83.01
#
DISCID=fb10f012
DTITLE=Various Artist - Raw Blues Vol.3 CD2
DYEAR=1900
DGENRE=Blues
TTITLE0=Pinetop Perkins - High Heel Sneakers
TTITLE1=Memphis Slim - Slims Blues
TTITLE2=Muddy Waters - Screamin' and Cryin
TTITLE3=Howlin' Wolf - Goin Down Slow
TTITLE4=Jimmy Reed - Boogie in the Dark
TTITLE5=Lightnin' Hopkins - Evil Hearted Woman
TTITLE6=Canned Heat - Dimples
TTITLE7=Lightning Slim - Crazy About You Babe
TTITLE8=Percy Mayfield - Two Years of Torture
TTITLE9=John Lee Hooker - When My First Wife Left Me
TTITLE10=Big Joe Williams - Sloppy Drink Blues
TTITLE11=Electric Flag - I Was Robbed Last Night
TTITLE12=Leadbelly - John Hardy
TTITLE13=James Cotton - V8 Ford Blues
TTITLE14=Lightnin' Hopkins - Lightnin's Boogie
TTITLE15=Roy Brown - Travellin' Blues
TTITLE16=Howlin' Wolf - All My Life
TTITLE17=Muddy Waters - Howlin' Wolf
EXTD=
EXTT0=
EXTT1=
EXTT2=
EXTT3=
EXTT4=
EXTT5=
EXTT6=
EXTT7=
EXTT8=
EXTT9=
EXTT10=
EXTT11=
EXTT12=
EXTT13=
EXTT14=
EXTT15=
EXTT16=
EXTT17=
PLAYORDER=
